<svg width="35" height="30" viewBox="0 0 35 30" fill="none" xmlns="http://www.w3.org/2000/svg">
<path d="M23.25 30L16.1667 22.9167L18.5 20.5833L23.25 25.3333L32.6667 15.9167L35 18.25L23.25 30ZM3.33333 26.6667C2.41667 26.6667 1.63194 26.3403 0.979167 25.6875C0.326389 25.0347 0 24.25 0 23.3333V3.33333C0 2.41667 0.326389 1.63194 0.979167 0.979167C1.63194 0.326389 2.41667 0 3.33333 0H30C30.9167 0 31.7014 0.326389 32.3542 0.979167C33.0069 1.63194 33.3333 2.41667 33.3333 3.33333V10.5833L23.2917 20.625L18.5 15.8333L11.4583 22.875L15.25 26.6667H3.33333ZM16.6667 15L30 6.66667V3.33333L16.6667 11.6667L3.33333 3.33333V6.66667L16.6667 15Z" fill="#004532"/>
</svg>
