<svg width="27" height="35" viewBox="0 0 27 35" fill="none" xmlns="http://www.w3.org/2000/svg">
<path d="M12.1154 20.1924H14.8078V14.8078H20.1924V12.1154H14.8078V6.7308H12.1154V12.1154H6.7308V14.8078H12.1154V20.1924ZM13.4616 26.9232C11.5994 26.9232 9.8494 26.5698 8.21158 25.8631C6.57375 25.1564 5.14906 24.1972 3.93752 22.9857C2.72597 21.7741 1.76684 20.3495 1.0601 18.7116C0.353367 17.0738 0 15.3238 0 13.4616C0 11.5994 0.353367 9.8494 1.0601 8.21158C1.76684 6.57375 2.72597 5.14906 3.93752 3.93752C5.14906 2.72597 6.57375 1.76684 8.21158 1.0601C9.8494 0.353367 11.5994 0 13.4616 0C15.3238 0 17.0738 0.353367 18.7116 1.0601C20.3495 1.76684 21.7741 2.72597 22.9857 3.93752C24.1972 5.14906 25.1564 6.57375 25.8631 8.21158C26.5698 9.8494 26.9232 11.5994 26.9232 13.4616C26.9232 15.3238 26.5698 17.0738 25.8631 18.7116C25.1564 20.3495 24.1972 21.7741 22.9857 22.9857C21.7741 24.1972 20.3495 25.1564 18.7116 25.8631C17.0738 26.5698 15.3238 26.9232 13.4616 26.9232ZM13.4616 24.2309C16.468 24.2309 19.0145 23.1876 21.1011 21.1011C23.1876 19.0145 24.2309 16.468 24.2309 13.4616C24.2309 10.4552 23.1876 7.90869 21.1011 5.82214C19.0145 3.73559 16.468 2.69232 13.4616 2.69232C10.4552 2.69232 7.90869 3.73559 5.82214 5.82214C3.73559 7.90869 2.69232 10.4552 2.69232 13.4616C2.69232 16.468 3.73559 19.0145 5.82214 21.1011C7.90869 23.1876 10.4552 24.2309 13.4616 24.2309Z" fill="#707975"/>
</svg>
