<svg width="33" height="33" viewBox="0 0 33 33" fill="none" xmlns="http://www.w3.org/2000/svg">
<path d="M16.4579 21.551C16.7525 21.551 17.0016 21.4492 17.205 21.2458C17.4084 21.0424 17.5102 20.7933 17.5102 20.4987C17.5102 20.204 17.4084 19.955 17.205 19.7515C17.0016 19.5481 16.7525 19.4464 16.4579 19.4464C16.1632 19.4464 15.9142 19.5481 15.7107 19.7515C15.5073 19.955 15.4056 20.204 15.4056 20.4987C15.4056 20.7933 15.5073 21.0424 15.7107 21.2458C15.9142 21.4492 16.1632 21.551 16.4579 21.551ZM15.7002 18.3099H17.2576C17.2576 17.8469 17.3102 17.4821 17.4155 17.2155C17.5207 16.9489 17.8188 16.5841 18.3099 16.1211C18.6747 15.7563 18.9623 15.4091 19.1728 15.0794C19.3832 14.7496 19.4885 14.3533 19.4885 13.8903C19.4885 13.1046 19.2008 12.5012 18.6256 12.0803C18.0503 11.6594 17.3699 11.449 16.5841 11.449C15.7844 11.449 15.1355 11.6594 14.6374 12.0803C14.1393 12.5012 13.7921 13.0063 13.5956 13.5956L14.9847 14.1428C15.0548 13.8903 15.2127 13.6167 15.4582 13.322C15.7037 13.0274 16.079 12.8801 16.5841 12.8801C17.0331 12.8801 17.3699 13.0028 17.5943 13.2484C17.8188 13.4939 17.9311 13.764 17.9311 14.0586C17.9311 14.3392 17.8469 14.6023 17.6785 14.8479C17.5102 15.0934 17.2997 15.3214 17.0472 15.5318C16.4298 16.079 16.051 16.4929 15.9107 16.7736C15.7704 17.0542 15.7002 17.5663 15.7002 18.3099ZM16.5 24.9183C15.3354 24.9183 14.241 24.6973 13.2168 24.2554C12.1926 23.8134 11.3016 23.2136 10.544 22.4559C9.78633 21.6983 9.18652 20.8073 8.74456 19.7831C8.30259 18.7589 8.08161 17.6645 8.08161 16.5C8.08161 15.3354 8.30259 14.241 8.74456 13.2168C9.18652 12.1926 9.78633 11.3016 10.544 10.544C11.3016 9.78633 12.1926 9.18652 13.2168 8.74456C14.241 8.30259 15.3354 8.08161 16.5 8.08161C17.6645 8.08161 18.7589 8.30259 19.7831 8.74456C20.8073 9.18652 21.6983 9.78633 22.4559 10.544C23.2136 11.3016 23.8134 12.1926 24.2554 13.2168C24.6973 14.241 24.9183 15.3354 24.9183 16.5C24.9183 17.6645 24.6973 18.7589 24.2554 19.7831C23.8134 20.8073 23.2136 21.6983 22.4559 22.4559C21.6983 23.2136 20.8073 23.8134 19.7831 24.2554C18.7589 24.6973 17.6645 24.9183 16.5 24.9183ZM16.5 23.2346C18.3801 23.2346 19.9725 22.5822 21.2774 21.2774C22.5822 19.9725 23.2346 18.3801 23.2346 16.5C23.2346 14.6199 22.5822 13.0274 21.2774 11.7225C19.9725 10.4177 18.3801 9.76528 16.5 9.76528C14.6199 9.76528 13.0274 10.4177 11.7225 11.7225C10.4177 13.0274 9.76528 14.6199 9.76528 16.5C9.76528 18.3801 10.4177 19.9725 11.7225 21.2774C13.0274 22.5822 14.6199 23.2346 16.5 23.2346Z" fill="#3F4945"/>
</svg>
