<svg width="20" height="24" viewBox="0 0 20 24" fill="none" xmlns="http://www.w3.org/2000/svg">
<path d="M9 17H5C3.61667 17 2.4375 16.5125 1.4625 15.5375C0.4875 14.5625 0 13.3833 0 12C0 10.6167 0.4875 9.4375 1.4625 8.4625C2.4375 7.4875 3.61667 7 5 7H9V9H5C4.16667 9 3.45833 9.29167 2.875 9.875C2.29167 10.4583 2 11.1667 2 12C2 12.8333 2.29167 13.5417 2.875 14.125C3.45833 14.7083 4.16667 15 5 15H9V17ZM6 13V11H14V13H6ZM11 17V15H15C15.8333 15 16.5417 14.7083 17.125 14.125C17.7083 13.5417 18 12.8333 18 12C18 11.1667 17.7083 10.4583 17.125 9.875C16.5417 9.29167 15.8333 9 15 9H11V7H15C16.3833 7 17.5625 7.4875 18.5375 8.4625C19.5125 9.4375 20 10.6167 20 12C20 13.3833 19.5125 14.5625 18.5375 15.5375C17.5625 16.5125 16.3833 17 15 17H11Z" fill="#707975"/>
</svg>
