<svg width="17" height="14" viewBox="0 0 17 14" fill="none" xmlns="http://www.w3.org/2000/svg">
<path d="M1.7 13.6C1.2325 13.6 0.832291 13.4335 0.499374 13.1006C0.166458 12.7677 0 12.3675 0 11.9V1.7C0 1.2325 0.166458 0.832291 0.499374 0.499374C0.832291 0.166458 1.2325 0 1.7 0H15.3C15.7675 0 16.1677 0.166458 16.5006 0.499374C16.8335 0.832291 17 1.2325 17 1.7V11.9C17 12.3675 16.8335 12.7677 16.5006 13.1006C16.1677 13.4335 15.7675 13.6 15.3 13.6H1.7ZM8.49999 7.64999L1.7 3.4V11.9H15.3V3.4L8.49999 7.64999ZM8.49999 5.94999L15.3 1.7H1.7L8.49999 5.94999ZM1.7 3.4V1.7V3.4V11.9V3.4Z" fill="#3F4945"/>
</svg>
