<svg width="14" height="14" viewBox="0 0 14 14" fill="none" xmlns="http://www.w3.org/2000/svg">
<path d="M7.00001 7.00001C6.03751 7.00001 5.21355 6.6573 4.52813 5.97188C3.84271 5.28647 3.50001 4.46251 3.50001 3.50001C3.50001 2.5375 3.84271 1.71354 4.52813 1.02813C5.21355 0.342709 6.03751 0 7.00001 0C7.96251 0 8.78647 0.342709 9.47189 1.02813C10.1573 1.71354 10.5 2.5375 10.5 3.50001C10.5 4.46251 10.1573 5.28647 9.47189 5.97188C8.78647 6.6573 7.96251 7.00001 7.00001 7.00001ZM0 14V11.55C0 11.0542 0.127604 10.5985 0.382813 10.1828C0.638022 9.7672 0.977085 9.45001 1.4 9.23126C2.30417 8.77918 3.22292 8.44012 4.15626 8.21407C5.08959 7.98803 6.03751 7.87501 7.00001 7.87501C7.96251 7.87501 8.91043 7.98803 9.84377 8.21407C10.7771 8.44012 11.6959 8.77918 12.6 9.23126C13.0229 9.45001 13.362 9.7672 13.6172 10.1828C13.8724 10.5985 14 11.0542 14 11.55V14H0ZM1.75 12.25H12.25V11.55C12.25 11.3896 12.2099 11.2438 12.1297 11.1125C12.0495 10.9813 11.9438 10.8792 11.8125 10.8063C11.025 10.4125 10.2302 10.1172 9.42814 9.92033C8.62605 9.72345 7.81668 9.62502 7.00001 9.62502C6.18334 9.62502 5.37397 9.72345 4.57188 9.92033C3.7698 10.1172 2.975 10.4125 2.1875 10.8063C2.05625 10.8792 1.95052 10.9813 1.87032 11.1125C1.79011 11.2438 1.75 11.3896 1.75 11.55V12.25ZM7.00001 5.25001C7.48126 5.25001 7.89324 5.07865 8.23595 4.73594C8.57866 4.39324 8.75001 3.98126 8.75001 3.50001C8.75001 3.01875 8.57866 2.60677 8.23595 2.26407C7.89324 1.92136 7.48126 1.75 7.00001 1.75C6.51876 1.75 6.10678 1.92136 5.76407 2.26407C5.42136 2.60677 5.25001 3.01875 5.25001 3.50001C5.25001 3.98126 5.42136 4.39324 5.76407 4.73594C6.10678 5.07865 6.51876 5.25001 7.00001 5.25001Z" fill="#7EBDAA"/>
</svg>
