<svg width="293" height="39" viewBox="0 0 293 39" fill="none" xmlns="http://www.w3.org/2000/svg">
<path d="M1.008 34.84V27.384C1.75467 27.384 2.37867 27.1973 2.88 26.824C3.38133 26.4507 3.78133 25.9333 4.08 25.272C4.38933 24.6107 4.62933 23.8427 4.8 22.968C4.97067 22.0827 5.104 21.144 5.2 20.152C5.31733 18.84 5.41867 17.5547 5.504 16.296C5.58933 15.0267 5.66933 13.7147 5.744 12.36C5.82933 10.9947 5.92533 9.51733 6.032 7.928L21.056 7.96V27.384H22.784V34.84H18.944V31H4.864V34.84H1.008ZM7.008 27.384H17.2V11.576L9.552 11.544C9.47733 12.664 9.41333 13.7093 9.36 14.68C9.31733 15.64 9.25867 16.616 9.184 17.608C9.12 18.6 9.02933 19.6827 8.912 20.856C8.80533 22.008 8.688 22.968 8.56 23.736C8.44267 24.504 8.26667 25.1707 8.032 25.736C7.79733 26.2907 7.456 26.84 7.008 27.384ZM33.6145 31.48C31.8865 31.48 30.3772 31.0907 29.0865 30.312C27.7958 29.5333 26.7932 28.4613 26.0785 27.096C25.3745 25.72 25.0225 24.1413 25.0225 22.36C25.0225 20.5467 25.3852 18.9573 26.1105 17.592C26.8358 16.2267 27.8438 15.16 29.1345 14.392C30.4252 13.624 31.9185 13.24 33.6145 13.24C35.3532 13.24 36.8678 13.6293 38.1585 14.408C39.4492 15.1867 40.4518 16.264 41.1665 17.64C41.8812 19.0053 42.2385 20.5787 42.2385 22.36C42.2385 24.152 41.8758 25.736 41.1505 27.112C40.4358 28.4773 39.4332 29.5493 38.1425 30.328C36.8518 31.096 35.3425 31.48 33.6145 31.48ZM33.6145 27.864C35.1505 27.864 36.2918 27.352 37.0385 26.328C37.7852 25.304 38.1585 23.9813 38.1585 22.36C38.1585 20.6853 37.7798 19.352 37.0225 18.36C36.2652 17.3573 35.1292 16.856 33.6145 16.856C32.5798 16.856 31.7265 17.0907 31.0545 17.56C30.3932 18.0187 29.9025 18.664 29.5825 19.496C29.2625 20.3173 29.1025 21.272 29.1025 22.36C29.1025 24.0347 29.4812 25.3733 30.2385 26.376C31.0065 27.368 32.1318 27.864 33.6145 27.864ZM52.9478 31.48C51.1664 31.48 49.6464 31.0853 48.3878 30.296C47.1291 29.496 46.1638 28.408 45.4918 27.032C44.8304 25.656 44.4944 24.0987 44.4838 22.36C44.4944 20.5893 44.8411 19.0213 45.5238 17.656C46.2171 16.28 47.1984 15.2027 48.4678 14.424C49.7371 13.6347 51.2464 13.24 52.9958 13.24C54.9584 13.24 56.6171 13.736 57.9718 14.728C59.3371 15.7093 60.2278 17.0533 60.6438 18.76L56.8038 19.8C56.5051 18.872 56.0091 18.152 55.3158 17.64C54.6224 17.1173 53.8331 16.856 52.9478 16.856C51.9451 16.856 51.1184 17.096 50.4678 17.576C49.8171 18.0453 49.3371 18.696 49.0278 19.528C48.7184 20.36 48.5638 21.304 48.5638 22.36C48.5638 24.0027 48.9318 25.3307 49.6678 26.344C50.4038 27.3573 51.4971 27.864 52.9478 27.864C53.9718 27.864 54.7771 27.6293 55.3638 27.16C55.9611 26.6907 56.4091 26.0133 56.7078 25.128L60.6438 26.008C60.1104 27.768 59.1771 29.1227 57.8438 30.072C56.5104 31.0107 54.8784 31.48 52.9478 31.48ZM67.7723 31V17.144H61.9963V13.72H77.4043V17.144H71.6283V31H67.7723ZM81.857 38.68L85.185 29.544L85.249 32.232L77.713 13.72H81.729L87.073 27.416H86.049L91.249 13.72H95.105L85.473 38.68H81.857ZM97.1393 31V13.72H112.147V31H108.291V17.336H100.995V31H97.1393ZM116.288 31V13.72H120.144V20.536H127.904V13.72H131.76V31H127.904V24.152H120.144V31H116.288ZM135.89 31L135.874 13.72H139.73V19.48H141.666C142.146 19.48 142.685 19.4907 143.282 19.512C143.89 19.5333 144.397 19.5813 144.802 19.656C145.773 19.8693 146.6 20.2107 147.282 20.68C147.976 21.1493 148.504 21.7627 148.866 22.52C149.229 23.2773 149.41 24.1893 149.41 25.256C149.41 26.7813 149.016 28.0027 148.226 28.92C147.437 29.8267 146.333 30.4453 144.914 30.776C144.498 30.872 143.981 30.936 143.362 30.968C142.744 30.9893 142.194 31 141.714 31H135.89ZM139.73 27.976H142.05C142.285 27.976 142.546 27.9653 142.834 27.944C143.122 27.9227 143.394 27.8747 143.65 27.8C144.13 27.672 144.557 27.384 144.93 26.936C145.304 26.4773 145.49 25.9173 145.49 25.256C145.49 24.5627 145.304 23.992 144.93 23.544C144.557 23.096 144.098 22.8027 143.554 22.664C143.298 22.6 143.037 22.5573 142.77 22.536C142.514 22.5147 142.274 22.504 142.05 22.504H139.73V27.976ZM151.218 31V13.72H155.074V31H151.218ZM167.099 31.48C165.349 31.48 163.813 31.1013 162.491 30.344C161.168 29.5867 160.133 28.536 159.387 27.192C158.651 25.848 158.283 24.3013 158.283 22.552C158.283 20.664 158.645 19.0267 159.371 17.64C160.096 16.2427 161.104 15.16 162.395 14.392C163.685 13.624 165.179 13.24 166.875 13.24C168.667 13.24 170.187 13.6613 171.435 14.504C172.693 15.336 173.627 16.5147 174.235 18.04C174.843 19.5653 175.072 21.3627 174.923 23.432H171.099V22.024C171.088 20.1467 170.757 18.776 170.107 17.912C169.456 17.048 168.432 16.616 167.035 16.616C165.456 16.616 164.283 17.1067 163.515 18.088C162.747 19.0587 162.363 20.4827 162.363 22.36C162.363 24.1093 162.747 25.464 163.515 26.424C164.283 27.384 165.403 27.864 166.875 27.864C167.824 27.864 168.64 27.656 169.323 27.24C170.016 26.8133 170.549 26.2 170.923 25.4L174.731 26.552C174.069 28.1093 173.045 29.32 171.659 30.184C170.283 31.048 168.763 31.48 167.099 31.48ZM161.147 23.432V20.52H173.035V23.432H161.147ZM190.403 31.48C188.76 31.48 187.261 31.1333 185.907 30.44C184.552 29.7467 183.485 28.7973 182.707 27.592L185.747 25.56C186.365 26.296 187.053 26.8667 187.811 27.272C188.568 27.6667 189.411 27.864 190.339 27.864C191.309 27.864 192.072 27.6507 192.627 27.224C193.181 26.7973 193.459 26.2267 193.459 25.512C193.459 24.8827 193.272 24.44 192.899 24.184C192.525 23.9173 192.035 23.7573 191.427 23.704C190.819 23.6507 190.168 23.624 189.475 23.624H188.195V20.568H189.459C190.429 20.568 191.24 20.456 191.891 20.232C192.552 20.008 192.883 19.512 192.883 18.744C192.883 18.0507 192.627 17.56 192.115 17.272C191.603 16.9733 191.005 16.824 190.323 16.824C189.491 16.824 188.669 17 187.859 17.352C187.048 17.704 186.323 18.1307 185.683 18.632L183.507 16.008C184.467 15.1547 185.539 14.4827 186.723 13.992C187.907 13.4907 189.171 13.24 190.515 13.24C191.624 13.24 192.659 13.432 193.619 13.816C194.589 14.2 195.368 14.776 195.955 15.544C196.552 16.312 196.851 17.2613 196.851 18.392C196.851 19.2027 196.675 19.9653 196.323 20.68C195.981 21.3947 195.432 22.072 194.675 22.712L194.627 21.464C195.213 21.7093 195.709 22.0507 196.115 22.488C196.531 22.9253 196.845 23.4373 197.059 24.024C197.283 24.6107 197.395 25.2347 197.395 25.896C197.395 27.1013 197.075 28.12 196.435 28.952C195.795 29.784 194.941 30.4133 193.875 30.84C192.819 31.2667 191.661 31.48 190.403 31.48ZM205.427 31.48C204.179 31.48 203.123 31.2453 202.259 30.776C201.395 30.296 200.739 29.6613 200.291 28.872C199.854 28.0827 199.635 27.2133 199.635 26.264C199.635 25.432 199.774 24.6853 200.051 24.024C200.328 23.352 200.755 22.776 201.331 22.296C201.907 21.8053 202.654 21.4053 203.571 21.096C204.264 20.872 205.075 20.6693 206.003 20.488C206.942 20.3067 207.955 20.1413 209.043 19.992C210.142 19.832 211.288 19.6613 212.483 19.48L211.107 20.264C211.118 19.0693 210.851 18.1893 210.307 17.624C209.763 17.0587 208.846 16.776 207.555 16.776C206.776 16.776 206.024 16.9573 205.299 17.32C204.574 17.6827 204.067 18.3067 203.779 19.192L200.259 18.088C200.686 16.6267 201.496 15.4533 202.691 14.568C203.896 13.6827 205.518 13.24 207.555 13.24C209.091 13.24 210.44 13.4907 211.603 13.992C212.776 14.4933 213.646 15.3147 214.211 16.456C214.52 17.064 214.707 17.688 214.771 18.328C214.835 18.9573 214.867 19.6453 214.867 20.392V31H211.491V27.256L212.051 27.864C211.272 29.112 210.36 30.0293 209.315 30.616C208.28 31.192 206.984 31.48 205.427 31.48ZM206.195 28.408C207.07 28.408 207.816 28.2533 208.435 27.944C209.054 27.6347 209.544 27.256 209.907 26.808C210.28 26.36 210.531 25.9387 210.659 25.544C210.862 25.0533 210.974 24.4933 210.995 23.864C211.027 23.224 211.043 22.7067 211.043 22.312L212.227 22.664C211.064 22.8453 210.067 23.0053 209.235 23.144C208.403 23.2827 207.688 23.416 207.091 23.544C206.494 23.6613 205.966 23.7947 205.507 23.944C205.059 24.104 204.68 24.2907 204.371 24.504C204.062 24.7173 203.822 24.9627 203.651 25.24C203.491 25.5173 203.411 25.8427 203.411 26.216C203.411 26.6427 203.518 27.0213 203.731 27.352C203.944 27.672 204.254 27.928 204.659 28.12C205.075 28.312 205.587 28.408 206.195 28.408ZM217.433 34.84V27.976C218.371 27.976 219.038 27.656 219.433 27.016C219.827 26.376 220.142 25.2667 220.377 23.688C220.526 22.7493 220.649 21.7573 220.745 20.712C220.841 19.6667 220.921 18.5627 220.985 17.4C221.059 16.2373 221.123 15.0107 221.177 13.72H234.041V27.976H235.785V34.84H232.137V31H221.065V34.84H217.433ZM222.601 27.976H230.201V16.744H224.553C224.521 17.384 224.483 18.04 224.441 18.712C224.398 19.3733 224.35 20.0347 224.297 20.696C224.243 21.3573 224.185 21.992 224.121 22.6C224.067 23.1973 224.003 23.752 223.929 24.264C223.811 25.16 223.667 25.896 223.497 26.472C223.326 27.048 223.027 27.5493 222.601 27.976ZM243.506 31.48C242.258 31.48 241.202 31.2453 240.338 30.776C239.474 30.296 238.818 29.6613 238.37 28.872C237.932 28.0827 237.714 27.2133 237.714 26.264C237.714 25.432 237.852 24.6853 238.13 24.024C238.407 23.352 238.834 22.776 239.41 22.296C239.986 21.8053 240.732 21.4053 241.65 21.096C242.343 20.872 243.154 20.6693 244.082 20.488C245.02 20.3067 246.034 20.1413 247.122 19.992C248.22 19.832 249.367 19.6613 250.562 19.48L249.186 20.264C249.196 19.0693 248.93 18.1893 248.386 17.624C247.842 17.0587 246.924 16.776 245.634 16.776C244.855 16.776 244.103 16.9573 243.378 17.32C242.652 17.6827 242.146 18.3067 241.858 19.192L238.338 18.088C238.764 16.6267 239.575 15.4533 240.77 14.568C241.975 13.6827 243.596 13.24 245.634 13.24C247.17 13.24 248.519 13.4907 249.682 13.992C250.855 14.4933 251.724 15.3147 252.29 16.456C252.599 17.064 252.786 17.688 252.85 18.328C252.914 18.9573 252.946 19.6453 252.946 20.392V31H249.57V27.256L250.13 27.864C249.351 29.112 248.439 30.0293 247.394 30.616C246.359 31.192 245.063 31.48 243.506 31.48ZM244.274 28.408C245.148 28.408 245.895 28.2533 246.514 27.944C247.132 27.6347 247.623 27.256 247.986 26.808C248.359 26.36 248.61 25.9387 248.738 25.544C248.94 25.0533 249.052 24.4933 249.074 23.864C249.106 23.224 249.122 22.7067 249.122 22.312L250.306 22.664C249.143 22.8453 248.146 23.0053 247.314 23.144C246.482 23.2827 245.767 23.416 245.17 23.544C244.572 23.6613 244.044 23.7947 243.586 23.944C243.138 24.104 242.759 24.2907 242.45 24.504C242.14 24.7173 241.9 24.9627 241.73 25.24C241.57 25.5173 241.49 25.8427 241.49 26.216C241.49 26.6427 241.596 27.0213 241.81 27.352C242.023 27.672 242.332 27.928 242.738 28.12C243.154 28.312 243.666 28.408 244.274 28.408ZM266.855 31V25.192C266.258 25.4907 265.575 25.7253 264.807 25.896C264.05 26.0667 263.255 26.152 262.423 26.152C260.642 26.152 259.218 25.752 258.151 24.952C257.095 24.152 256.413 22.9893 256.103 21.464C256.007 21.0267 255.938 20.5733 255.895 20.104C255.863 19.624 255.842 19.192 255.831 18.808C255.831 18.4133 255.831 18.1147 255.831 17.912V13.72H259.735V17.912C259.735 18.1467 259.746 18.4933 259.767 18.952C259.789 19.4 259.847 19.848 259.943 20.296C260.146 21.1493 260.514 21.7733 261.047 22.168C261.581 22.5627 262.343 22.76 263.335 22.76C264.103 22.76 264.781 22.6587 265.367 22.456C265.954 22.2533 266.45 21.9973 266.855 21.688V13.72H270.727V31H266.855ZM289.854 13.72V31H286.158V19.72L277.934 31H274.846V13.72H278.542V24.712L286.798 13.72H289.854Z" fill="#151C29"/>
</svg>
