<svg width="64" height="64" viewBox="0 0 64 64" fill="none" xmlns="http://www.w3.org/2000/svg">
<path d="M31.8262 12.7289C31.928 12.6776 32.042 12.6395 32.1302 12.5733C34.3277 10.9242 36.5212 9.271 38.718 7.62108C39.8037 6.8056 40.894 5.99498 41.9827 5.1829C42.049 5.13355 42.1212 5.09093 42.2052 5.0354C42.6357 5.35385 43.0587 5.666 43.4807 5.9793C48.9522 10.0409 54.4235 14.1027 59.8947 18.1644C60.5882 18.6792 61.2757 19.2007 61.978 19.7053C62.1675 19.8415 62.244 19.9788 62.2437 20.2019C62.2357 27.5377 62.2357 34.8732 62.235 42.209C62.2347 43.4679 62.2302 44.727 62.2402 45.986C62.2417 46.1952 62.1665 46.3305 61.9892 46.4622C58.507 49.0504 55.0287 51.643 51.5512 54.2365C48.5295 56.4902 45.5097 58.7459 42.489 61.0005C42.3722 61.0877 42.253 61.1722 42.1245 61.2654C41.791 61.0169 41.4697 60.7792 41.1505 60.5395C38.1117 58.2579 35.0732 55.9757 32.0342 53.6945C31.9757 53.6505 31.9112 53.6132 31.8197 53.5512C31.7317 53.4729 31.68 53.4095 31.615 53.3607C30.9592 52.8697 30.2997 52.3827 29.6442 51.8917C28.4167 50.9725 27.191 50.0514 25.9655 49.1302C25.8945 49.077 25.8317 49.0147 25.753 48.9459C26.5232 48.3717 27.2615 47.8175 28.0045 47.2685C29.1367 46.4312 30.271 45.5967 31.4072 44.7642C31.5492 44.6602 31.7085 44.5762 31.8822 44.4887C32.2432 44.7449 32.5825 44.9947 32.9205 45.2459C35.8182 47.4012 38.7157 49.5567 41.614 51.7117C41.789 51.8417 41.968 51.967 42.1557 52.102C46.2227 49.0717 50.2695 46.0564 54.3467 43.0185C46.9135 37.4312 39.491 31.9112 32.0652 26.3302C34.1247 24.7844 36.141 23.2709 38.158 21.7568C40.845 23.7628 43.508 25.754 46.175 27.7412C48.846 29.7314 51.5047 31.7355 54.2455 33.7632C54.2455 33.5 54.2455 33.3144 54.2455 33.1292C54.245 29.9079 54.2412 26.6867 54.2507 23.4655C54.2515 23.2287 54.1612 23.0849 53.9685 22.9439C53.033 22.2596 52.1045 21.5673 51.177 20.874C48.2682 18.6994 45.3612 16.5229 42.453 14.3479C42.363 14.2808 42.2652 14.2224 42.1605 14.153C35.7407 18.9739 29.3397 23.7807 22.9273 28.596C20.8954 27.0687 18.877 25.5907 16.8757 24.0663C16.972 23.9841 17.0318 23.9272 17.098 23.8773C18.1064 23.1174 19.115 22.3577 20.1247 21.5993C21.9171 20.2529 23.7109 18.9082 25.5012 17.5596C25.5882 17.4942 25.6477 17.3989 25.7435 17.3166C25.8245 17.2923 25.8915 17.2795 25.9385 17.2444C26.8272 16.5793 27.7132 15.9114 28.6002 15.2444C29.596 14.4955 30.5932 13.7484 31.5855 12.9959C31.681 12.9235 31.7467 12.8186 31.8262 12.7289Z" fill="#1BA276"/>
<path d="M31.86 44.483C31.7085 44.5762 31.5492 44.6602 31.4072 44.7642C30.271 45.5967 29.1367 46.4312 28.0045 47.2685C27.2615 47.8175 26.5232 48.3717 25.753 48.946C25.8317 49.0147 25.8945 49.077 25.9655 49.1302C27.191 50.0515 28.4167 50.9725 29.6442 51.8917C30.2997 52.3827 30.9592 52.8697 31.615 53.3607C31.68 53.4095 31.7317 53.473 31.7962 53.5477C28.3702 56.1282 24.9381 58.691 21.4994 61.2585C20.8534 60.7765 20.23 60.3107 19.6062 59.8457C14.5834 56.1012 9.5608 52.3567 4.5375 48.613C3.57505 47.8955 2.61472 47.1757 1.64211 46.47C1.44812 46.3292 1.38714 46.1832 1.38737 45.9657C1.39338 40.3052 1.39225 34.645 1.39241 28.9845C1.39249 26.08 1.3963 23.1754 1.38616 20.2709C1.38532 20.0291 1.459 19.8745 1.66579 19.7212C6.35395 16.2477 11.0363 12.7677 15.7201 9.2892C17.4786 7.9832 19.2378 6.678 20.9969 5.37263C21.1485 5.26013 21.3013 5.14893 21.4787 5.01868C24.9226 7.58218 28.3585 10.1396 31.8102 12.7129C31.7467 12.8187 31.681 12.9235 31.5855 12.9959C30.5932 13.7484 29.596 14.4955 28.6002 15.2444C27.7132 15.9114 26.8272 16.5793 25.9385 17.2444C25.8915 17.2795 25.8245 17.2924 25.7237 17.3046C24.2761 16.2434 22.8715 15.1933 21.4654 14.1421C20.8761 14.5813 20.3193 14.9961 19.7627 15.4112C16.3615 17.9478 12.961 20.4851 9.55652 23.0181C9.42237 23.118 9.38117 23.2206 9.38162 23.3717C9.38747 25.3047 9.38895 27.2375 9.38355 29.1705C9.38305 29.3455 9.4415 29.4577 9.59255 29.5697C13.9835 32.8245 18.3703 36.0842 22.7578 39.343C23.3743 39.8007 23.9915 40.258 24.626 40.7287C28.0675 38.181 31.4995 35.6405 34.932 33.0995C39.3725 36.3965 43.784 39.6715 48.2327 42.9745C46.1847 44.5125 44.1683 46.0272 42.1315 47.557C39.713 45.7502 37.3133 43.9577 34.9085 42.1612C33.9103 42.9055 32.9312 43.6347 31.954 44.366C31.9142 44.3957 31.8907 44.4435 31.86 44.483ZM16.576 43.8795C15.7833 43.287 14.9908 42.6942 14.1978 42.102C13.3965 41.5037 12.5984 40.9015 11.792 40.3085C11.0013 39.7272 10.2338 39.119 9.3861 38.5245C9.3861 40.0427 9.3874 41.4987 9.38357 42.955C9.38327 43.068 9.43292 43.1385 9.52425 43.2035C9.73907 43.3567 9.95075 43.5132 10.162 43.6705C13.7709 46.3527 17.3794 49.0355 20.9883 51.7177C21.1556 51.842 21.3255 51.9635 21.5082 52.0965C22.5208 51.3367 23.5193 50.5875 24.5396 49.822C21.8764 47.8342 19.2446 45.8697 16.576 43.8795Z" fill="#141F37"/>
</svg>
