<svg width="256" height="256" viewBox="0 0 256 256" fill="none" xmlns="http://www.w3.org/2000/svg">
<path d="M173.625 24.3186C195.511 40.565 217.396 56.8127 239.281 73.0598C242.049 75.1148 244.807 77.2063 247.62 79.2278C247.961 79.473 248.165 79.6928 248.288 79.9211C248.41 80.1464 248.475 80.4199 248.475 80.8069C248.442 110.15 248.443 139.494 248.44 168.836C248.439 173.87 248.422 178.909 248.461 183.948C248.464 184.302 248.402 184.561 248.286 184.778C248.169 184.998 247.976 185.212 247.659 185.448C233.73 195.801 219.816 206.172 205.906 216.546C193.819 225.56 181.74 234.583 169.656 243.601C169.283 243.88 168.906 244.149 168.502 244.441C167.272 243.525 166.084 242.645 164.902 241.758C152.747 232.632 140.594 223.503 128.438 214.377C128.202 214.201 127.902 214.021 127.588 213.81C127.436 213.673 127.313 213.55 127.187 213.425C127.058 213.298 126.92 213.163 126.759 213.043V213.042C124.105 211.055 121.527 209.152 118.877 207.167C113.968 203.49 109.064 199.806 104.162 196.121C104.036 196.026 103.922 195.928 103.8 195.819C106.706 193.651 109.502 191.555 112.315 189.476C116.843 186.128 121.38 182.79 125.925 179.46C126.386 179.123 126.903 178.838 127.485 178.539C128.833 179.5 130.11 180.439 131.383 181.385C142.974 190.005 154.565 198.629 166.157 207.248C166.861 207.771 167.588 208.28 168.331 208.815L168.628 209.029L168.922 208.81C185.19 196.689 201.377 184.627 217.686 172.475L218.221 172.075L217.688 171.674C202.821 160.499 187.964 149.391 173.112 138.287C158.438 127.316 143.767 116.347 129.094 105.321C137.045 99.3524 144.838 93.5026 152.633 87.6516C163.278 95.5995 173.832 103.491 184.4 111.365C195.081 119.324 205.721 127.343 216.685 135.455L217.483 136.045V132.517C217.48 119.631 217.465 106.747 217.503 93.8635C217.505 93.3225 217.402 92.8533 217.165 92.4309C216.932 92.0138 216.588 91.6789 216.169 91.3723C212.429 88.6369 208.717 85.8691 205.008 83.0959C193.373 74.3974 181.746 65.6916 170.111 56.9915C169.738 56.7123 169.31 56.4548 168.919 56.1956L168.624 56.0002L168.342 56.2122L91.7091 113.759C83.8404 107.848 76.041 102.13 68.295 96.2385C68.44 96.1116 68.56 96.0093 68.6925 95.9094C72.7258 92.8697 76.7604 89.8306 80.7989 86.7971C87.9679 81.4122 95.144 76.0323 102.306 70.6379C102.524 70.4734 102.701 70.277 102.85 70.1106C102.981 69.9632 103.096 69.8333 103.225 69.7131C103.338 69.681 103.472 69.6452 103.569 69.6135C103.719 69.565 103.895 69.4973 104.054 69.3782C107.609 66.7173 111.154 64.0449 114.701 61.3772C118.683 58.3827 122.673 55.3927 126.644 52.3821C126.881 52.2019 127.072 51.989 127.233 51.7932C127.385 51.6098 127.492 51.4688 127.616 51.3225C127.782 51.2433 127.941 51.1743 128.144 51.0803C128.361 50.9794 128.601 50.8579 128.82 50.6936C137.61 44.0977 146.388 37.4826 155.173 30.884C159.515 27.6229 163.875 24.3818 168.231 21.1331C168.407 21.0014 168.583 20.8882 168.801 20.7493C170.427 21.9525 172.028 23.1331 173.625 24.3186Z" fill="#1BA276" stroke="white"/>
<path d="M85.9118 20.6968C99.4652 30.7853 112.988 40.8499 126.571 50.9761C126.404 51.2277 126.24 51.4334 126.04 51.5855C122.071 54.5945 118.084 57.5817 114.1 60.5777C110.552 63.2463 107.008 65.9177 103.454 68.5777C103.401 68.6173 103.301 68.653 103.027 68.6939C97.2965 64.4919 91.7324 60.3328 86.1608 56.1675L85.862 55.9449L85.5632 56.1675C83.2062 57.9243 80.978 59.5834 78.7516 61.2437C65.1466 71.39 51.5449 81.5397 37.9274 91.6714C37.6117 91.9064 37.374 92.1687 37.2224 92.4888C37.0718 92.8068 37.025 93.1418 37.0261 93.4888C37.0494 101.22 37.0555 108.951 37.0339 116.681C37.0328 117.089 37.1012 117.462 37.2819 117.807C37.4613 118.15 37.7315 118.428 38.072 118.68C55.6357 131.7 73.1828 144.738 90.7331 157.773C93.1992 159.605 95.6681 161.434 98.2057 163.316L98.5036 163.537L98.8015 163.316C112.468 153.199 126.097 143.11 139.727 133.02C157.21 146 174.581 158.898 192.094 171.9C184.187 177.839 176.392 183.693 168.524 189.602C158.952 182.452 149.452 175.356 139.932 168.245L139.633 168.021L139.335 168.245C135.342 171.221 131.426 174.138 127.516 177.063C127.374 177.17 127.275 177.298 127.207 177.393C127.15 177.473 127.12 177.515 127.091 177.556C126.543 177.889 125.892 178.245 125.334 178.654C120.788 181.984 116.25 185.323 111.72 188.671C108.748 190.869 105.792 193.087 102.714 195.382L102.216 195.753L102.683 196.161C102.966 196.407 103.26 196.694 103.561 196.92C108.464 200.606 113.367 204.29 118.277 207.967C120.872 209.911 123.568 211.903 126.16 213.843C126.261 213.919 126.353 214.007 126.453 214.114C112.992 224.251 99.5078 234.321 85.9968 244.41C83.5194 242.561 81.122 240.77 78.7233 238.982C58.6324 224.005 38.5419 209.027 18.4489 194.051C14.6007 191.183 10.7558 188.301 6.862 185.475C6.52167 185.228 6.33034 185.001 6.21747 184.768C6.10363 184.534 6.04909 184.252 6.0495 183.863C6.07355 161.221 6.06939 138.579 6.07001 115.938C6.07033 104.321 6.08518 92.7008 6.04462 81.0816C6.04314 80.65 6.10788 80.3371 6.23895 80.0757C6.37033 79.8139 6.58901 79.562 6.96063 79.2867C25.7136 65.3921 44.4435 51.4718 63.1784 37.5582C70.2124 32.3343 77.2495 27.1137 84.2858 21.8922C84.8045 21.5072 85.3252 21.1269 85.9118 20.6968ZM37.0446 154.098C37.0446 160.171 37.0492 165.995 37.0339 171.819C37.0331 172.124 37.1017 172.398 37.2487 172.645C37.3919 172.885 37.5922 173.069 37.8073 173.222C38.6619 173.831 39.5053 174.455 40.3503 175.083C54.7854 185.812 69.2196 196.543 83.655 207.272C84.3265 207.771 85.0129 208.261 85.739 208.79L86.0378 209.007L86.3327 208.786C90.3828 205.747 94.3777 202.75 98.4587 199.688L98.9929 199.288L98.4577 198.887L66.6032 175.117C63.4326 172.747 60.2623 170.376 57.0905 168.007C53.8879 165.616 50.6918 163.205 47.4645 160.832C44.324 158.522 41.2252 156.069 37.8317 153.689L37.0446 153.137V154.098Z" fill="#141F37" stroke="white"/>
</svg>
